<?xml version="1.0" encoding="UTF-8" standalone="no"?>
<svg
   xmlns:osb="http://www.openswatchbook.org/uri/2009/osb"
   xmlns:dc="http://purl.org/dc/elements/1.1/"
   xmlns:cc="http://creativecommons.org/ns#"
   xmlns:rdf="http://www.w3.org/1999/02/22-rdf-syntax-ns#"
   xmlns:svg="http://www.w3.org/2000/svg"
   xmlns="http://www.w3.org/2000/svg"
   xmlns:sodipodi="http://sodipodi.sourceforge.net/DTD/sodipodi-0.dtd"
   xmlns:inkscape="http://www.inkscape.org/namespaces/inkscape"
   width="187.62317mm"
   height="187.62317mm"
   viewBox="0 0 187.62317 187.62317"
   version="1.1"
   id="svg8"
   sodipodi:docname="profile.svg"
   inkscape:version="1.0.2-2 (e86c870879, 2021-01-15)">
  <defs
     id="defs2">
    <linearGradient
       id="linearGradient2779"
       osb:paint="solid">
      <stop
         style="stop-color:#000000;stop-opacity:1;"
         offset="0"
         id="stop2777" />
    </linearGradient>
  </defs>
  <sodipodi:namedview
     id="base"
     pagecolor="#ffffff"
     bordercolor="#666666"
     borderopacity="1.0"
     inkscape:pageopacity="0.0"
     inkscape:pageshadow="2"
     inkscape:zoom="0.35"
     inkscape:cx="642.69964"
     inkscape:cy="711.00736"
     inkscape:document-units="mm"
     inkscape:current-layer="layer1"
     inkscape:document-rotation="0"
     showgrid="false"
     inkscape:window-width="1677"
     inkscape:window-height="1030"
     inkscape:window-x="204"
     inkscape:window-y="0"
     inkscape:window-maximized="0"
     fit-margin-top="0"
     fit-margin-left="0"
     fit-margin-right="0"
     fit-margin-bottom="0" />
  <metadata
     id="metadata5">
    <rdf:RDF>
      <cc:Work
         rdf:about="">
        <dc:format>image/svg+xml</dc:format>
        <dc:type
           rdf:resource="http://purl.org/dc/dcmitype/StillImage" />
        <dc:title></dc:title>
      </cc:Work>
    </rdf:RDF>
  </metadata>
  <g
     inkscape:label="Warstwa 1"
     inkscape:groupmode="layer"
     id="layer1"
     transform="translate(-11.188464)">
    <g
       id="g2873"
       transform="translate(0,-41.694094)">
      <path
         id="path2813"
         style="fill:#000000;fill-opacity:1;stroke-width:0.935244"
         d="M 396.85156,157.58398 A 354.56352,354.56352 0 0 0 42.287109,512.14648 354.56352,354.56352 0 0 0 396.85156,866.71094 354.56352,354.56352 0 0 0 751.41406,512.14648 354.56352,354.56352 0 0 0 396.85156,157.58398 Z m 0,25.71485 A 328.84922,328.84922 0 0 1 725.69922,512.14648 328.84922,328.84922 0 0 1 586.8457,780.55664 c 0.002,-0.51887 0.004,-1.03776 0.004,-1.55664 1.9e-4,-99.82182 -32.82774,-192.80389 -87.14844,-246.83984 -30.21948,20.91796 -66.09863,32.12457 -102.85156,32.125 C 360.09755,564.28491 324.21916,553.079 294,532.16211 239.67894,586.19698 206.85028,679.17829 206.84961,779 c -2.4e-4,0.51758 3.6e-4,1.03516 0.002,1.55273 1.73601,1.2289 3.48335,2.43957 5.24024,3.63282 1.73431,1.17791 3.4783,2.33941 5.23242,3.48242 a 328.84922,328.84922 0 0 1 -5.23242,-3.48242 328.84922,328.84922 0 0 1 -5.24024,-3.63282 A 328.84922,328.84922 0 0 1 68.001953,512.14648 328.84922,328.84922 0 0 1 396.85156,183.29883 Z m 189.88086,597.33789 a 328.84922,328.84922 0 0 1 -5.11133,3.54101 c 1.71319,-1.16366 3.41799,-2.34345 5.11133,-3.54101 z m -5.1543,3.57226 a 328.84922,328.84922 0 0 1 -5.26171,3.49805 c 1.76381,-1.14876 3.51791,-2.314 5.26171,-3.49805 z m -5.29101,3.51758 a 328.84922,328.84922 0 0 1 -5.29688,3.37696 c 1.77517,-1.10819 3.541,-2.23364 5.29688,-3.37696 z m -358.82617,0.0293 c 1.71732,1.11782 3.44391,2.21852 5.17968,3.30273 a 328.84922,328.84922 0 0 1 -5.17968,-3.30273 z m 353.43359,3.40625 a 328.84922,328.84922 0 0 1 -5.30664,3.24219 c 1.77807,-1.06298 3.54698,-2.14452 5.30664,-3.24219 z m -348.04883,0.0254 c 1.76677,1.10177 3.54281,2.18515 5.32813,3.25195 3.60929,2.1567 7.25566,4.2431 10.9375,6.25586 a 328.84922,328.84922 0 0 1 -10.9375,-6.25586 328.84922,328.84922 0 0 1 -5.32813,-3.25195 z m 342.6211,3.28906 a 328.84922,328.84922 0 0 1 -5.21485,3.04883 c 1.74653,-1.00004 3.48523,-2.01582 5.21485,-3.04883 z m -5.60742,3.27344 a 328.84922,328.84922 0 0 1 -5.18165,2.89648 c 1.73527,-0.9493 3.46225,-1.91511 5.18165,-2.89648 z m -320.57032,3.04102 c 1.8177,0.99223 3.64397,1.96691 5.47852,2.92382 1.83221,0.9557 3.67299,1.89416 5.52148,2.81446 a 328.84922,328.84922 0 0 1 -5.52148,-2.81446 328.84922,328.84922 0 0 1 -5.47852,-2.92382 z m 315.11328,0.006 a 328.84922,328.84922 0 0 1 -5.29296,2.82617 c 1.77226,-0.92578 3.53645,-1.86742 5.29296,-2.82617 z m -5.73437,3.05664 a 328.84922,328.84922 0 0 1 -5.08008,2.58789 c 1.70022,-0.84774 3.39364,-1.7102 5.08008,-2.58789 z m -298.15625,2.7871 c 1.8512,0.9199 3.71115,1.82084 5.57812,2.70508 a 328.84922,328.84922 0 0 1 -5.57812,-2.70508 z m 292.51562,0.0801 a 328.84922,328.84922 0 0 1 -5.3164,2.57813 c 1.77905,-0.84332 3.55168,-1.70243 5.3164,-2.57813 z m -286.93359,2.62891 c 1.90303,0.90128 3.81356,1.78242 5.73242,2.64648 1.91965,0.86442 3.84631,1.71012 5.78125,2.53711 1.91883,0.82011 3.84599,1.62312 5.7793,2.40625 a 328.84922,328.84922 0 0 1 -5.7793,-2.40625 328.84922,328.84922 0 0 1 -5.78125,-2.53711 328.84922,328.84922 0 0 1 -5.73242,-2.64648 z m 281.36914,0.0664 a 328.84922,328.84922 0 0 1 -5.48437,2.5332 c 1.83566,-0.82735 3.6632,-1.67178 5.48437,-2.5332 z m -5.68555,2.625 a 328.84922,328.84922 0 0 1 -5.60937,2.46093 c 1.87654,-0.80258 3.74721,-1.62315 5.60937,-2.46093 z m -5.74804,2.51953 a 328.84922,328.84922 0 0 1 -5.62305,2.33984 c 1.88114,-0.76265 3.75563,-1.54218 5.62305,-2.33984 z m -252.59375,2.39843 c 1.94889,0.78908 3.90609,1.55727 5.86914,2.3086 a 328.84922,328.84922 0 0 1 -5.86914,-2.3086 z m 246.71093,0.0488 a 328.84922,328.84922 0 0 1 -5.7539,2.26367 328.84922,328.84922 0 0 1 -5.82813,2.16797 c 1.94991,-0.70426 3.89147,-1.42678 5.82813,-2.16797 1.9245,-0.73652 3.84301,-1.49086 5.7539,-2.26367 z m -240.83593,2.26367 c 1.93902,0.74209 3.88559,1.46485 5.83789,2.16993 a 328.84922,328.84922 0 0 1 -5.83789,-2.16993 z m 229.17187,2.19727 a 328.84922,328.84922 0 0 1 -5.95312,2.08398 328.84922,328.84922 0 0 1 -5.88672,1.93555 c 1.96821,-0.62683 3.93058,-1.27172 5.88672,-1.93555 1.99045,-0.67547 3.97572,-1.37037 5.95312,-2.08398 z m -223.16211,0.0352 c 1.90698,0.68751 3.81917,1.35771 5.73828,2.00976 a 328.84922,328.84922 0 0 1 -5.73828,-2.00976 z m 5.95508,2.08398 c 1.91021,0.64754 3.82633,1.27641 5.74805,1.88867 a 328.84922,328.84922 0 0 1 -5.74805,-1.88867 z m 205.14258,1.9707 a 328.84922,328.84922 0 0 1 -5.87891,1.8086 c 1.96528,-0.58412 3.92498,-1.18786 5.87891,-1.8086 z m -199.13281,0.002 c 1.91435,0.60816 3.8345,1.19847 5.75976,1.77148 a 328.84922,328.84922 0 0 1 -5.75976,-1.77148 z m 193.19531,1.82422 a 328.84922,328.84922 0 0 1 -5.90039,1.6914 c 1.9724,-0.54599 3.93877,-1.10877 5.90039,-1.6914 z m -187.16602,0.0273 c 1.96325,0.58249 3.93221,1.14757 5.90625,1.69336 a 328.84922,328.84922 0 0 1 -5.90625,-1.69336 z m 5.95703,1.70703 c 2.01922,0.55793 4.04427,1.09588 6.07422,1.61524 a 328.84922,328.84922 0 0 1 -6.07422,-1.61524 z m 175.04297,0.0312 a 328.84922,328.84922 0 0 1 -5.75976,1.5332 c 1.92445,-0.49363 3.84497,-1.00489 5.75976,-1.5332 z m -168.94922,1.58984 c 2.03061,0.51939 4.06663,1.01939 6.10743,1.5 2.0474,0.48217 4.09914,0.94376 6.15625,1.38672 2.01231,0.43332 4.02971,0.8485 6.05078,1.24414 a 328.84922,328.84922 0 0 1 -6.05078,-1.24414 328.84922,328.84922 0 0 1 -6.15625,-1.38672 328.84922,328.84922 0 0 1 -6.10743,-1.5 z m 162.85743,0.0293 a 328.84922,328.84922 0 0 1 -5.99414,1.4707 328.84922,328.84922 0 0 1 -6.09375,1.375 c 2.03609,-0.43884 4.06716,-0.89774 6.09375,-1.375 2.00291,-0.47167 4.00104,-0.96167 5.99414,-1.4707 z m -12.23828,2.87695 a 328.84922,328.84922 0 0 1 -6.00196,1.23243 c 2.00476,-0.39219 4.0058,-0.80317 6.00196,-1.23243 z m -6.24219,1.2793 a 328.84922,328.84922 0 0 1 -5.95703,1.10352 c 1.98981,-0.3498 3.9751,-0.71734 5.95703,-1.10352 z m -125.75977,0.004 c 1.99243,0.38809 3.98788,0.75806 5.98828,1.10937 a 328.84922,328.84922 0 0 1 -5.98828,-1.10937 z m 6.0957,1.12695 c 2.03528,0.35675 4.07419,0.69516 6.11719,1.01367 a 328.84922,328.84922 0 0 1 -6.11719,-1.01367 z m 113.45704,0.0156 a 328.84922,328.84922 0 0 1 -5.97852,0.99023 c 1.99653,-0.31158 3.98936,-0.64214 5.97852,-0.99023 z m -107.22071,1.01757 c 2.06274,0.32082 4.12917,0.62068 6.19922,0.90235 a 328.84922,328.84922 0 0 1 -6.19922,-0.90235 z m 100.97266,0.0137 a 328.84922,328.84922 0 0 1 -6.05469,0.88281 c 2.02175,-0.27538 4.03992,-0.5701 6.05469,-0.88281 z m -94.76172,0.89062 c 2.08905,0.28418 4.18334,0.54883 6.2793,0.79297 a 328.84922,328.84922 0 0 1 -6.2793,-0.79297 z m 88.59766,0.008 a 328.84922,328.84922 0 0 1 -6.22461,0.78516 328.84922,328.84922 0 0 1 -6.10352,0.65234 c 2.03746,-0.19884 4.07203,-0.41572 6.10352,-0.65234 2.07822,-0.24207 4.15316,-0.50372 6.22461,-0.78516 z m -82.3086,0.78711 c 2.01858,0.23507 4.03999,0.45068 6.06446,0.64844 a 328.84922,328.84922 0 0 1 -6.06446,-0.64844 z m 69.61133,0.6875 a 328.84922,328.84922 0 0 1 -6.14844,0.53516 328.84922,328.84922 0 0 1 -6.28515,0.42578 c 2.09753,-0.12228 4.19277,-0.26353 6.28515,-0.42578 2.05193,-0.15911 4.10199,-0.33777 6.14844,-0.53516 z m -63.08984,0.004 c 1.99523,0.19209 3.99175,0.36773 5.99218,0.52344 a 328.84922,328.84922 0 0 1 -5.99218,-0.52344 z m 6.1914,0.53906 c 2.03276,0.15698 4.06981,0.2948 6.10743,0.41406 a 328.84922,328.84922 0 0 1 -6.10743,-0.41406 z m 44.33985,0.42578 a 328.84922,328.84922 0 0 1 -6.15625,0.29883 c 2.05458,-0.0804 4.10606,-0.1801 6.15625,-0.29883 z m -37.96485,0.002 c 1.99114,0.11491 3.98324,0.21227 5.97852,0.29101 a 328.84922,328.84922 0 0 1 -5.97852,-0.29101 z m 31.52539,0.30664 a 328.84922,328.84922 0 0 1 -6.20117,0.17968 328.84922,328.84922 0 0 1 -6.375,0.0625 328.84922,328.84922 0 0 1 -6.375,-0.0625 328.84922,328.84922 0 0 1 -6.17773,-0.17773 c 2.05697,0.0786 4.11689,0.13779 6.17773,0.17773 2.12339,0.0412 4.24806,0.0625 6.375,0.0625 2.12687,0 4.25169,-0.0213 6.375,-0.0625 2.0686,-0.0401 4.13648,-0.10069 6.20117,-0.17968 z"
         transform="scale(0.26458333)" />
      <circle
         style="fill:#000000;fill-opacity:1;stroke-width:0.264583"
         id="path2811"
         cx="105"
         cy="101.4866"
         r="31.938988" />
    </g>
  </g>
</svg>
